<svg xmlns="http://www.w3.org/2000/svg" xmlns:xlink="http://www.w3.org/1999/xlink" width="181" height="88" viewBox="0 0 181 88"><defs><path id="b" d="M1.406 0h19.969c.117 0 .586.469 1.406 1.406 0 .118-1.406 1.524-4.219 4.219h-14.343c-.118 0-1.524-1.406-4.219-4.219 0-.117.469-.585 1.406-1.406z"/><path id="c" d="M2.812 0h16.594c.117 0 1.055.938 2.812 2.812v.141c0 .117-.938 1.055-2.812 2.812h-16.594c-.118 0-1.055-.937-2.812-2.812v-.141c-.001-.117.937-1.054 2.812-2.812z"/><path id="d" d="M1.407 0c.119 0 1.526 1.405 4.226 4.215v16.017c0 .114-1.406 1.524-4.226 4.224-.115 0-.58-.477-1.407-1.414v-21.637c0-.115.465-.588 1.407-1.405z"/><path id="g" d="M0 0h22.76c.124 0 .583.473 1.405 1.406 0 .115-1.405 1.525-4.221 4.218h-14.331c-3.39-3.183-5.268-5.01-5.613-5.483v-.141z"/><path id="f" d="M.279 0h1.677c1.795 1.401 10.46 9.437 12.159 11.197v5.27c0 .176-.094.264-.279.264h-2.098c-3.98-3.961-7.897-7.689-11.738-11.198v-5.269c.025-.18.118-.264.279-.264z"/><path id="e" d="M.277 0h4.078c1.969 1.002 3.657 4.025 5.059 9.07.374.786 1.598 4.088 3.66 9.907-.469.926-.699 1.484-.699 1.675h-.141c-3.84-1.37-5.766-2.486-5.766-3.356-2.811-7.926-4.968-13.655-6.468-17.17l.277-.126z"/><filter id="h"><feGaussianBlur stdDeviation="1.5" result="blur"/><feComposite operator="out" in="SourceGraphic" in2="blur" result="inverse"/><feFlood flood-color="#000" flood-opacity="1" result="color"/><feComposite operator="in" in="color" in2="inverse" result="shadow"/><feComposite in="shadow" in2="SourceGraphic"/><feGaussianBlur stdDeviation=".2"/></filter><filter id="i" x="-30%" y="-30%" width="160%" height="160%"><feFlood flood-color="#fff" flood-opacity="1" result="color"/><feComposite operator="in" in="color" in2="SourceGraphic" result="color"/><feGaussianBlur in="color" stdDeviation="2" result="blur"/><feComposite operator="out" in="blur" in2="blur" result="inverse"/><feComposite operator="in" in="color" in2="inverse" result="glow"/><feComponentTransfer in="glow" result="inner"><feFuncA type="linear" slope=".45"/></feComponentTransfer><feFlood flood-color="#00B0B9" flood-opacity=".85" result="color"/><feComposite operator="in" in="color" in2="SourceGraphic" result="color"/><feGaussianBlur in="color" stdDeviation="5" result="outer"/><feMerge><feMergeNode in="SourceGraphic"/><feMergeNode in="outer"/><feMergeNode in="inner"/></feMerge></filter><filter id="a" x="-50%" y="-50%" width="200%" height="200%"><feFlood flood-color="#fff" flood-opacity="1" result="color"/><feComposite operator="in" in="color" in2="SourceGraphic" result="color"/><feGaussianBlur in="color" stdDeviation=".5" result="blur"/><feComposite operator="out" in="blur" in2="blur" result="inverse"/><feComposite operator="in" in="color" in2="inverse" result="glow"/><feComponentTransfer in="glow" result="inner"><feFuncA type="linear" slope=".45"/></feComponentTransfer><feFlood flood-color="#00B0B9" flood-opacity=".55" result="color"/><feComposite operator="in" in="color" in2="SourceGraphic" result="color"/><feGaussianBlur in="color" stdDeviation="2" result="outer"/><feMerge><feMergeNode in="SourceGraphic"/><feMergeNode in="outer"/><feMergeNode in="inner"/></feMerge></filter></defs><g fill="#00ABB9" filter="url(#a)"><g transform="translate(15 73) scale(.153)"><use xlink:href="#b" x="2.81"/><use xlink:href="#b" x="25.45" y="50.2" transform="rotate(180 25.45 50.2)"/><use xlink:href="#b" y="24.33" transform="rotate(-90 0 24.33)"/><use xlink:href="#b" x="28.27" y="25.88" transform="rotate(90 28.27 25.88)"/><use xlink:href="#c" x="2.81" y="22.08"/></g><g transform="matrix(.153 0 0 .153 19.865 73)"><use xlink:href="#b" x="2.81"/><use xlink:href="#b" x="25.45" y="50.2" transform="rotate(180 25.45 50.2)"/><use xlink:href="#b" y="24.33" transform="rotate(-90 0 24.33)"/><use xlink:href="#b" y="48.52" transform="rotate(-90 0 48.52)"/><use xlink:href="#b" x="28.27" y="1.41" transform="rotate(90 28.27 1.41)"/><use xlink:href="#b" x="28.27" y="25.88" transform="rotate(90 28.27 25.88)"/></g><g transform="matrix(.153 0 0 .153 24.746 73)"><use xlink:href="#b" x="25.45" y="50.2" transform="rotate(180 25.45 50.2)"/><use xlink:href="#d"/><use xlink:href="#b" y="48.52" transform="rotate(-90 0 48.52)"/><use xlink:href="#d" x="28.2" y="24.55" transform="rotate(180 28.2 24.55)"/><use xlink:href="#b" x="28.27" y="25.88" transform="rotate(90 28.27 25.88)"/></g><g transform="matrix(.153 0 0 .153 29.611 73)"><use xlink:href="#b" x="2.81"/><use xlink:href="#b" y="24.33" transform="rotate(-90 0 24.33)"/><use xlink:href="#d" y="25.8"/><use xlink:href="#b" x="28.27" y="1.41" transform="rotate(90 28.27 1.41)"/><use xlink:href="#c" x="2.81" y="22.08"/><use xlink:href="#e" x="15.2" y="29.35"/></g><g transform="matrix(.153 0 0 .153 34.477 73)"><use xlink:href="#b" x="2.81"/><use xlink:href="#b" x="25.45" y="50.2" transform="rotate(180 25.45 50.2)"/><use xlink:href="#b" y="24.33" transform="rotate(-90 0 24.33)"/><use xlink:href="#b" y="48.52" transform="rotate(-90 0 48.52)"/></g><g transform="matrix(.153 0 0 .153 39.35 73)"><use xlink:href="#b" x="2.81"/><use xlink:href="#b" x="25.45" y="50.2" transform="rotate(180 25.45 50.2)"/><use xlink:href="#b" y="24.33" transform="rotate(-90 0 24.33)"/><use xlink:href="#b" y="48.52" transform="rotate(-90 0 48.52)"/><use xlink:href="#c" x="2.81" y="22.08"/></g><g transform="matrix(.153 0 0 .153 60.081 73)"><use xlink:href="#b" x="25.45" y="50.2" transform="rotate(180 25.45 50.2)"/><use xlink:href="#d"/><use xlink:href="#b" y="48.52" transform="rotate(-90 0 48.52)"/></g><g transform="matrix(.153 0 0 .153 64.946 73)"><use xlink:href="#d"/><use xlink:href="#d" x="5.75" y="50.2" transform="rotate(180 5.75 50.2)"/></g><g transform="matrix(.153 0 0 .153 66.461 73)"><use xlink:href="#d"/><use xlink:href="#d" y="25.8"/><use xlink:href="#d" x="28.2" y="24.55" transform="rotate(180 28.2 24.55)"/><use xlink:href="#d" x="28.2" y="50.2" transform="rotate(180 28.2 50.2)"/><use xlink:href="#f" x="6.85" y="6.95"/></g><g transform="matrix(.153 0 0 .153 71.327 73)"><use xlink:href="#b" x="2.81"/><use xlink:href="#b" x="25.45" y="50.2" transform="rotate(180 25.45 50.2)"/><use xlink:href="#b" y="24.33" transform="rotate(-90 0 24.33)"/><use xlink:href="#b" y="48.52" transform="rotate(-90 0 48.52)"/><use xlink:href="#c" x="2.81" y="22.08"/></g><g transform="matrix(.153 0 0 .153 76.192 73)"><use xlink:href="#b" x="2.81"/><use xlink:href="#b" x="25.45" y="50.2" transform="rotate(180 25.45 50.2)"/><use xlink:href="#b" y="24.33" transform="rotate(-90 0 24.33)"/><use xlink:href="#b" x="28.27" y="25.88" transform="rotate(90 28.27 25.88)"/><use xlink:href="#c" x="2.81" y="22.08"/></g><g transform="matrix(.153 0 0 .153 109.179 73)"><use xlink:href="#b" x="2.81"/><use xlink:href="#b" x="25.45" y="50.2" transform="rotate(180 25.45 50.2)"/><use xlink:href="#b" y="24.33" transform="rotate(-90 0 24.33)"/><use xlink:href="#b" y="48.52" transform="rotate(-90 0 48.52)"/><use xlink:href="#b" x="28.27" y="1.41" transform="rotate(90 28.27 1.41)"/><use xlink:href="#b" x="28.27" y="25.88" transform="rotate(90 28.27 25.88)"/></g><g transform="matrix(.153 0 0 .153 114.044 73)"><use xlink:href="#b" x="2.81"/><use xlink:href="#b" y="24.33" transform="rotate(-90 0 24.33)"/><use xlink:href="#d" y="25.8"/><use xlink:href="#c" x="2.81" y="22.08"/></g><g transform="matrix(.153 0 0 .153 144.247 73)"><use xlink:href="#b" x="2.81"/><use xlink:href="#b" x="25.45" y="50.2" transform="rotate(180 25.45 50.2)"/><use xlink:href="#b" y="24.33" transform="rotate(-90 0 24.33)"/><use xlink:href="#b" y="48.52" transform="rotate(-90 0 48.52)"/></g><g transform="matrix(.153 0 0 .153 149.112 73)"><use xlink:href="#b" x="2.81"/><use xlink:href="#b" x="25.45" y="50.2" transform="rotate(180 25.45 50.2)"/><use xlink:href="#b" y="24.33" transform="rotate(-90 0 24.33)"/><use xlink:href="#b" y="48.52" transform="rotate(-90 0 48.52)"/><use xlink:href="#b" x="28.27" y="1.41" transform="rotate(90 28.27 1.41)"/><use xlink:href="#b" x="28.27" y="25.88" transform="rotate(90 28.27 25.88)"/></g><g transform="matrix(.153 0 0 .153 153.993 73)"><use xlink:href="#g" x="1.42"/><use xlink:href="#g" x="1.42" y="-50.2" transform="scale(1 -1)"/><use xlink:href="#g" y=".28" transform="rotate(-90 0 .28) scale(-1 1)"/><use xlink:href="#g" x="-50" transform="rotate(-90)"/><use xlink:href="#b" x="28.27" y="1.41" transform="rotate(90 28.27 1.41)"/><use xlink:href="#b" x="28.27" y="25.88" transform="rotate(90 28.27 25.88)"/></g><g transform="matrix(.153 0 0 .153 158.859 73)"><use xlink:href="#b" x="2.81"/><use xlink:href="#b" x="25.45" y="50.2" transform="rotate(180 25.45 50.2)"/><use xlink:href="#b" y="24.33" transform="rotate(-90 0 24.33)"/><use xlink:href="#b" y="48.52" transform="rotate(-90 0 48.52)"/><use xlink:href="#c" x="2.81" y="22.08"/></g></g><g fill="#80B5B9" opacity=".15" filter="url(#h)"><g transform="translate(15 15)"><use xlink:href="#b" y="48.52" transform="rotate(-90 0 48.52)"/><use xlink:href="#b" x="28.27" y="1.41" transform="rotate(90 28.27 1.41)"/></g><g transform="translate(15 15) translate(41.82)"><use xlink:href="#b" x="2.81"/><use xlink:href="#b" x="28.27" y="1.41" transform="rotate(90 28.27 1.41)"/><use xlink:href="#b" x="28.27" y="25.88" transform="rotate(90 28.27 25.88)"/><use xlink:href="#c" x="2.81" y="22.08"/></g><use xlink:href="#c" x="2.81" y="22.08" transform="translate(15 15) translate(83.63)"/><g transform="translate(15 15) translate(125.45)"><use xlink:href="#b" x="28.27" y="1.41" transform="rotate(90 28.27 1.41)"/><use xlink:href="#b" x="28.27" y="25.88" transform="rotate(90 28.27 25.88)"/><use xlink:href="#c" x="2.81" y="22.08"/></g></g><g fill="#00ABB9" filter="url(#i)"><g transform="translate(15 15)"><use xlink:href="#b" x="2.81"/><use xlink:href="#b" x="25.45" y="50.2" transform="rotate(180 25.45 50.2)"/><use xlink:href="#b" y="24.33" transform="rotate(-90 0 24.33)"/><use xlink:href="#b" x="28.27" y="25.88" transform="rotate(90 28.27 25.88)"/><use xlink:href="#c" x="2.81" y="22.08"/></g><g transform="translate(15 15) translate(41.82)"><use xlink:href="#b" x="25.45" y="50.2" transform="rotate(180 25.45 50.2)"/><use xlink:href="#b" y="24.33" transform="rotate(-90 0 24.33)"/><use xlink:href="#b" y="48.52" transform="rotate(-90 0 48.52)"/></g><g transform="translate(15 15) translate(83.63)"><use xlink:href="#b" x="2.81"/><use xlink:href="#b" x="25.45" y="50.2" transform="rotate(180 25.45 50.2)"/><use xlink:href="#b" y="24.33" transform="rotate(-90 0 24.33)"/><use xlink:href="#b" y="48.52" transform="rotate(-90 0 48.52)"/><use xlink:href="#b" x="28.27" y="1.41" transform="rotate(90 28.27 1.41)"/><use xlink:href="#b" x="28.27" y="25.88" transform="rotate(90 28.27 25.88)"/></g><g transform="translate(15 15) translate(125.45)"><use xlink:href="#b" x="2.81"/><use xlink:href="#b" x="25.45" y="50.2" transform="rotate(180 25.45 50.2)"/><use xlink:href="#b" y="24.33" transform="rotate(-90 0 24.33)"/><use xlink:href="#b" y="48.52" transform="rotate(-90 0 48.52)"/></g></g></svg>